<?xml version="1.0" encoding="UTF-8"?>
<!DOCTYPE svg PUBLIC "-//W3C//DTD SVG 1.1//EN" "http://www.w3.org/Graphics/SVG/1.1/DTD/svg11.dtd">
<svg version="1.2" width="420mm" height="297mm" viewBox="0 0 42000 29700" preserveAspectRatio="xMidYMid" fill-rule="evenodd" stroke-width="28.222" stroke-linejoin="round" xmlns="http://www.w3.org/2000/svg" xmlns:ooo="http://xml.openoffice.org/svg/export" xmlns:xlink="http://www.w3.org/1999/xlink" xmlns:presentation="http://sun.com/xmlns/staroffice/presentation" xmlns:smil="http://www.w3.org/2001/SMIL20/" xmlns:anim="urn:oasis:names:tc:opendocument:xmlns:animation:1.0" xml:space="preserve">
 <defs class="ClipPathGroup">
  <clipPath id="presentation_clip_path" clipPathUnits="userSpaceOnUse">
   <rect x="0" y="0" width="42000" height="29700"/>
  </clipPath>
  <clipPath id="presentation_clip_path_shrink" clipPathUnits="userSpaceOnUse">
   <rect x="42" y="29" width="41916" height="29641"/>
  </clipPath>
 </defs>
 <defs class="TextShapeIndex">
  <g ooo:slide="id1" ooo:id-list="id3 id4 id5"/>
 </defs>
 <defs class="EmbeddedBulletChars">
  <g id="bullet-char-template-57356" transform="scale(0.00048828125,-0.00048828125)">
   <path d="M 580,1141 L 1163,571 580,0 -4,571 580,1141 Z"/>
  </g>
  <g id="bullet-char-template-57354" transform="scale(0.00048828125,-0.00048828125)">
   <path d="M 8,1128 L 1137,1128 1137,0 8,0 8,1128 Z"/>
  </g>
  <g id="bullet-char-template-10146" transform="scale(0.00048828125,-0.00048828125)">
   <path d="M 174,0 L 602,739 174,1481 1456,739 174,0 Z M 1358,739 L 309,1346 659,739 1358,739 Z"/>
  </g>
  <g id="bullet-char-template-10132" transform="scale(0.00048828125,-0.00048828125)">
   <path d="M 2015,739 L 1276,0 717,0 1260,543 174,543 174,936 1260,936 717,1481 1274,1481 2015,739 Z"/>
  </g>
  <g id="bullet-char-template-10007" transform="scale(0.00048828125,-0.00048828125)">
   <path d="M 0,-2 C -7,14 -16,27 -25,37 L 356,567 C 262,823 215,952 215,954 215,979 228,992 255,992 264,992 276,990 289,987 310,991 331,999 354,1012 L 381,999 492,748 772,1049 836,1024 860,1049 C 881,1039 901,1025 922,1006 886,937 835,863 770,784 769,783 710,716 594,584 L 774,223 C 774,196 753,168 711,139 L 727,119 C 717,90 699,76 672,76 641,76 570,178 457,381 L 164,-76 C 142,-110 111,-127 72,-127 30,-127 9,-110 8,-76 1,-67 -2,-52 -2,-32 -2,-23 -1,-13 0,-2 Z"/>
  </g>
  <g id="bullet-char-template-10004" transform="scale(0.00048828125,-0.00048828125)">
   <path d="M 285,-33 C 182,-33 111,30 74,156 52,228 41,333 41,471 41,549 55,616 82,672 116,743 169,778 240,778 293,778 328,747 346,684 L 369,508 C 377,444 397,411 428,410 L 1163,1116 C 1174,1127 1196,1133 1229,1133 1271,1133 1292,1118 1292,1087 L 1292,965 C 1292,929 1282,901 1262,881 L 442,47 C 390,-6 338,-33 285,-33 Z"/>
  </g>
  <g id="bullet-char-template-9679" transform="scale(0.00048828125,-0.00048828125)">
   <path d="M 813,0 C 632,0 489,54 383,161 276,268 223,411 223,592 223,773 276,916 383,1023 489,1130 632,1184 813,1184 992,1184 1136,1130 1245,1023 1353,916 1407,772 1407,592 1407,412 1353,268 1245,161 1136,54 992,0 813,0 Z"/>
  </g>
  <g id="bullet-char-template-8226" transform="scale(0.00048828125,-0.00048828125)">
   <path d="M 346,457 C 273,457 209,483 155,535 101,586 74,649 74,723 74,796 101,859 155,911 209,963 273,989 346,989 419,989 480,963 531,910 582,859 608,796 608,723 608,648 583,586 532,535 482,483 420,457 346,457 Z"/>
  </g>
  <g id="bullet-char-template-8211" transform="scale(0.00048828125,-0.00048828125)">
   <path d="M -4,459 L 1135,459 1135,606 -4,606 -4,459 Z"/>
  </g>
  <g id="bullet-char-template-61548" transform="scale(0.00048828125,-0.00048828125)">
   <path d="M 173,740 C 173,903 231,1043 346,1159 462,1274 601,1332 765,1332 928,1332 1067,1274 1183,1159 1299,1043 1357,903 1357,740 1357,577 1299,437 1183,322 1067,206 928,148 765,148 601,148 462,206 346,322 231,437 173,577 173,740 Z"/>
  </g>
 </defs>
 <defs class="TextEmbeddedBitmaps"/>
 <g>
  <g id="id2" class="Master_Slide">
   <g id="bg-id2" class="Background"/>
   <g id="bo-id2" class="BackgroundObjects"/>
  </g>
 </g>
 <g class="SlideGroup">
  <g>
   <g id="container-id1">
    <g id="id1" class="Slide" clip-path="url(#presentation_clip_path)">
     <g class="Page">
      <g class="com.sun.star.drawing.CustomShape">
       <g id="id3">
        <rect class="BoundingBox" stroke="none" fill="none" x="9118" y="2968" width="23765" height="23766"/>
        <path fill="rgb(82,135,85)" stroke="none" d="M 21000,3550 C 27407,3550 32300,8443 32300,14850 32300,21257 27407,26150 21000,26150 14593,26150 9700,21257 9700,14850 9700,8443 14593,3550 21000,3550 Z M 9700,3550 L 9700,3550 Z M 32301,26151 L 32301,26151 Z"/>
        <path fill="none" stroke="rgb(38,38,38)" stroke-width="1164" stroke-linejoin="miter" d="M 21000,3550 C 27407,3550 32300,8443 32300,14850 32300,21257 27407,26150 21000,26150 14593,26150 9700,21257 9700,14850 9700,8443 14593,3550 21000,3550 Z"/>
       </g>
      </g>
      <g class="Group">
       <g class="Group">
        <g class="com.sun.star.drawing.CustomShape">
         <g id="id4">
          <rect class="BoundingBox" stroke="none" fill="none" x="13517" y="9859" width="12675" height="12675"/>
          <path fill="rgb(255,121,0)" stroke="none" d="M 25600,16200 L 25598,16343 25593,16485 25584,16627 25572,16770 25556,16911 25536,17053 25514,17193 25487,17333 25457,17473 25424,17612 25387,17749 25347,17886 25304,18022 25257,18157 25207,18290 25153,18422 25096,18553 25036,18683 24973,18810 24907,18937 24838,19061 24765,19184 24690,19305 24611,19424 24530,19541 24445,19656 24358,19769 24268,19880 24176,19988 24080,20094 23983,20198 23882,20299 23779,20398 23674,20494 23566,20588 23456,20679 23344,20767 23230,20852 23113,20934 22995,21014 22875,21090 22752,21164 22628,21234 22503,21302 22375,21366 22246,21427 22116,21485 21984,21539 21851,21590 21717,21638 21582,21683 21445,21724 21308,21762 21169,21797 21030,21828 20890,21855 20749,21879 20608,21900 20467,21917 20325,21930 20183,21940 20040,21947 19898,21950 19755,21949 19612,21945 19470,21937 19328,21926 19186,21912 19045,21893 18904,21872 18763,21846 18624,21818 18485,21786 18346,21750 18209,21711 18073,21669 17938,21623 17804,21574 17672,21521 17540,21466 17410,21407 17282,21345 17155,21279 17030,21211 16907,21140 16785,21065 16665,20988 16548,20907 16432,20824 16318,20738 16207,20649 16098,20557 15991,20462 15886,20365 15784,20266 15685,20164 15588,20059 15493,19952 15401,19843 15312,19732 15226,19618 15143,19502 15062,19385 14985,19265 14910,19143 14839,19020 14771,18895 14705,18768 14643,18640 14584,18510 14529,18378 14476,18246 14427,18112 14381,17977 14339,17841 14300,17704 14264,17565 14232,17426 14204,17287 14178,17146 14157,17005 14138,16864 14124,16722 14113,16580 14105,16438 14101,16295 14100,16152 14103,16010 14110,15867 14120,15725 14133,15583 14150,15442 14171,15301 14195,15160 14222,15020 14253,14881 14288,14742 14326,14605 14367,14468 14412,14333 14460,14199 14511,14066 14565,13934 14623,13804 14684,13675 14748,13547 14816,13422 14886,13298 14960,13175 15036,13055 15116,12937 15198,12820 15283,12706 15371,12594 15462,12484 15556,12376 15652,12271 15751,12168 15852,12067 15956,11970 16062,11874 16170,11782 16281,11692 16394,11605 16509,11520 16626,11439 16745,11360 16866,11285 16989,11212 17113,11143 17240,11077 17367,11014 17497,10954 17628,10897 17760,10843 17893,10793 18028,10746 18164,10703 18301,10663 18438,10626 18577,10593 18717,10563 18857,10536 18997,10514 19139,10494 19280,10478 19423,10466 19565,10457 19707,10452 19850,10450 19850,16200 25600,16200 Z M 14100,10450 L 14100,10450 Z M 25601,21951 L 25601,21951 Z"/>
          <path fill="none" stroke="rgb(255,255,255)" stroke-width="1164" stroke-linejoin="miter" d="M 25600,16200 L 25598,16343 25593,16485 25584,16627 25572,16770 25556,16911 25536,17053 25514,17193 25487,17333 25457,17473 25424,17612 25387,17749 25347,17886 25304,18022 25257,18157 25207,18290 25153,18422 25096,18553 25036,18683 24973,18810 24907,18937 24838,19061 24765,19184 24690,19305 24611,19424 24530,19541 24445,19656 24358,19769 24268,19880 24176,19988 24080,20094 23983,20198 23882,20299 23779,20398 23674,20494 23566,20588 23456,20679 23344,20767 23230,20852 23113,20934 22995,21014 22875,21090 22752,21164 22628,21234 22503,21302 22375,21366 22246,21427 22116,21485 21984,21539 21851,21590 21717,21638 21582,21683 21445,21724 21308,21762 21169,21797 21030,21828 20890,21855 20749,21879 20608,21900 20467,21917 20325,21930 20183,21940 20040,21947 19898,21950 19755,21949 19612,21945 19470,21937 19328,21926 19186,21912 19045,21893 18904,21872 18763,21846 18624,21818 18485,21786 18346,21750 18209,21711 18073,21669 17938,21623 17804,21574 17672,21521 17540,21466 17410,21407 17282,21345 17155,21279 17030,21211 16907,21140 16785,21065 16665,20988 16548,20907 16432,20824 16318,20738 16207,20649 16098,20557 15991,20462 15886,20365 15784,20266 15685,20164 15588,20059 15493,19952 15401,19843 15312,19732 15226,19618 15143,19502 15062,19385 14985,19265 14910,19143 14839,19020 14771,18895 14705,18768 14643,18640 14584,18510 14529,18378 14476,18246 14427,18112 14381,17977 14339,17841 14300,17704 14264,17565 14232,17426 14204,17287 14178,17146 14157,17005 14138,16864 14124,16722 14113,16580 14105,16438 14101,16295 14100,16152 14103,16010 14110,15867 14120,15725 14133,15583 14150,15442 14171,15301 14195,15160 14222,15020 14253,14881 14288,14742 14326,14605 14367,14468 14412,14333 14460,14199 14511,14066 14565,13934 14623,13804 14684,13675 14748,13547 14816,13422 14886,13298 14960,13175 15036,13055 15116,12937 15198,12820 15283,12706 15371,12594 15462,12484 15556,12376 15652,12271 15751,12168 15852,12067 15956,11970 16062,11874 16170,11782 16281,11692 16394,11605 16509,11520 16626,11439 16745,11360 16866,11285 16989,11212 17113,11143 17240,11077 17367,11014 17497,10954 17628,10897 17760,10843 17893,10793 18028,10746 18164,10703 18301,10663 18438,10626 18577,10593 18717,10563 18857,10536 18997,10514 19139,10494 19280,10478 19423,10466 19565,10457 19707,10452 19850,10450 19850,16200 25600,16200 Z"/>
         </g>
        </g>
        <g class="com.sun.star.drawing.CustomShape">
         <g id="id5">
          <rect class="BoundingBox" stroke="none" fill="none" x="19318" y="7168" width="9166" height="9566"/>
          <path fill="rgb(14,136,164)" stroke="none" d="M 23900,7750 C 25900,7750 27901,9850 27901,11950 27901,14050 25900,16151 23900,16151 L 19900,16151 19900,7750 23900,7750 Z M 19900,7750 L 19900,7750 Z M 27901,16151 L 27901,16151 Z"/>
          <path fill="none" stroke="rgb(255,255,255)" stroke-width="1164" stroke-linejoin="miter" d="M 23900,7750 C 25900,7750 27901,9850 27901,11950 27901,14050 25900,16151 23900,16151 L 19900,16151 19900,7750 23900,7750 Z"/>
         </g>
        </g>
       </g>
      </g>
     </g>
    </g>
   </g>
  </g>
 </g>
</svg>